<svg width="48" height="48" viewBox="0 0 48 48" fill="none" xmlns="http://www.w3.org/2000/svg">
  <path fill-rule="evenodd" clip-rule="evenodd" d="M24 4C12.954 4 4 12.954 4 24c0 8.837 5.73 16.332 13.68 18.984 1 .184 1.365-.434 1.365-.964 0-.476-.017-1.737-.027-3.41-5.563 1.209-6.737-2.68-6.737-2.68-.91-2.31-2.22-2.925-2.22-2.925-1.815-1.24.137-1.215.137-1.215 2.006.14 3.062 2.06 3.062 2.06 1.783 3.055 4.678 2.172 5.817 1.661.182-1.292.698-2.173 1.27-2.673-4.44-.505-9.108-2.22-9.108-9.884 0-2.183.78-3.968 2.058-5.367-.206-.504-.892-2.54.196-5.293 0 0 1.678-.538 5.497 2.05A19.146 19.146 0 0124 13.29c1.7.008 3.412.23 5.01.674 3.816-2.588 5.492-2.05 5.492-2.05 1.09 2.754.404 4.79.198 5.293 1.28 1.399 2.055 3.184 2.055 5.367 0 7.683-4.674 9.373-9.126 9.868.718.618 1.357 1.837 1.357 3.703 0 2.673-.025 4.83-.025 5.487 0 .534.36 1.156 1.375.96C38.275 40.327 44 32.834 44 24c0-11.046-8.954-20-20-20z" fill="#000"/>
</svg>
